# xmcd CD database file
#
# Track frame offsets:
#	150
#	24115
#	37537
#	71142
#	92272
#	98287
#	111930
#	123080
#	162877
#	166825
#	177925
#	221125
#	228175
#
# Disc length: 3294 seconds
#
# Revision: 7
# Processed by: cddbd v1.5.2PL0 Copyright (c) Steve Scherf et al.
# Submitted via: CDex 1.51
#
DISCID=8c0cdc0d
DTITLE=Rachmaninoff - Liturgy of St John Chrysostom [conclusion] (V.Polyansky, Russian State Symphony Cappella)
DYEAR=2008
DGENRE=Classique
TTITLE0=Liturgy of St. John Chrysostom Op.31 - Anaphora [conclusion]
TTITLE1=Liturgy of St. John Chrysostom Op.31 - Hymn of Praise
TTITLE2=Liturgy of St. John Chrysostom Op.31 - Hymn to the Virgin
TTITLE3=Liturgy of St. John Chrysostom Op.31 - The Lord's Prayer
TTITLE4=Liturgy of St. John Chrysostom Op.31 - The Elevation
TTITLE5=Liturgy of St. John Chrysostom Op.31 - Communion Hymn
TTITLE6=Liturgy of St. John Chrysostom Op.31 - Blessing
TTITLE7=Liturgy of St. John Chrysostom Op.31 - Hymn of Praise
TTITLE8=Liturgy of St. John Chrysostom Op.31 - Blessed be his Name
TTITLE9=Liturgy of St. John Chrysostom Op.31 - Glory to the Father
TTITLE10=O Mother of God Vigilantly Praying
TTITLE11=Chorus of Spirits
TTITLE12=Panteley the Healer
EXTD=Russian State Symphony Cappella YEAR: 2008
EXTT0=
EXTT1=
EXTT2=
EXTT3=
EXTT4=
EXTT5=
EXTT6=
EXTT7=
EXTT8=
EXTT9=
EXTT10=Sacred Concerto for 4-part unaccompanied choir
EXTT11=For 4-part unaccompanied choir\n
EXTT12=For 4-part unaccompanied choir
PLAYORDER=
